HIERARCHY
ROOT SpineBase
{
  OFFSET 0.000000 0.000000 0.000000
  CHANNELS 6 Xposition Yposition Zposition Zrotation Xrotation Yrotation
  JOINT SpineMid
  {
    OFFSET 0.000000 26.926890 -0.000000
    CHANNELS 3 Zrotation Xrotation Yrotation
    JOINT SpineShoulder
    {
      OFFSET -0.206386 20.011389 -0.650775
      CHANNELS 3 Zrotation Xrotation Yrotation
      JOINT Neck
      {
        OFFSET -0.102080 6.630380 -0.499902
        CHANNELS 3 Zrotation Xrotation Yrotation
        JOINT Head
        {
          OFFSET -1.581921 12.199122 1.156627
          CHANNELS 3 Zrotation Xrotation Yrotation
          End Site
          {
            OFFSET 0 0 0
          }
        }
      }
      JOINT ShoulderLeft
      {
        OFFSET -12.720388 -3.752665 4.890262
        CHANNELS 3 Zrotation Xrotation Yrotation
        JOINT ElbowLeft
        {
          OFFSET -0.503524 -24.622843 -1.895468
          CHANNELS 3 Zrotation Xrotation Yrotation
          JOINT WristLeft
          {
            OFFSET -0.064659 -18.304625 -10.237007
            CHANNELS 3 Zrotation Xrotation Yrotation
            JOINT HandLeft
            {
              OFFSET 4.134340 -1.669112 -4.391871
              CHANNELS 3 Zrotation Xrotation Yrotation
              JOINT HandTipLeft
              {
                OFFSET 1.730891 -2.085515 -2.922147
                CHANNELS 3 Zrotation Xrotation Yrotation
                End Site
                {
                  OFFSET 0 0 0
                }
              }
              JOINT ThumbLeft
              {
                OFFSET -1.163113 1.038399 -2.248550
                CHANNELS 3 Zrotation Xrotation Yrotation
                End Site
                {
                  OFFSET 0 0 0
                }
              }
            }
          }
        }
      }
      JOINT ShoulderRight
      {
        OFFSET 10.849559 -3.608727 -7.924566
        CHANNELS 3 Zrotation Xrotation Yrotation
        JOINT ElbowRight
        {
          OFFSET 0.905692 -22.633871 -4.277026
          CHANNELS 3 Zrotation Xrotation Yrotation
          JOINT WristRight
          {
            OFFSET -9.958369 -17.367045 -4.958213
            CHANNELS 3 Zrotation Xrotation Yrotation
            JOINT HandRight
            {
              OFFSET -1.814941 -4.219535 2.731562
              CHANNELS 3 Zrotation Xrotation Yrotation
              JOINT HandTipRight
              {
                OFFSET -5.532398 -3.062774 -0.402185
                CHANNELS 3 Zrotation Xrotation Yrotation
                End Site
                {
                  OFFSET 0 0 0
                }
              }
              JOINT ThumbRight
              {
                OFFSET 4.001261 -2.338231 1.611775
                CHANNELS 3 Zrotation Xrotation Yrotation
                End Site
                {
                  OFFSET 0 0 0
                }
              }
            }
          }
        }
      }
    }
  }
  JOINT HipLeft
  {
    OFFSET -5.639105 0.139471 -0.409424
    CHANNELS 3 Zrotation Xrotation Yrotation
    JOINT KneeLeft
    {
      OFFSET 1.798829 -29.430113 4.264632
      CHANNELS 3 Zrotation Xrotation Yrotation
      JOINT AnkleLeft
      {
        OFFSET 4.008730 -33.340013 6.297854
        CHANNELS 3 Zrotation Xrotation Yrotation
        JOINT FootLeft
        {
          OFFSET -3.906422 -2.192557 -10.985258
          CHANNELS 3 Zrotation Xrotation Yrotation
          End Site
          {
            OFFSET 0 0 0
          }
        }
      }
    }
  }
  JOINT HipRight
  {
    OFFSET 5.014794 1.255966 -5.693165
    CHANNELS 3 Zrotation Xrotation Yrotation
    JOINT KneeRight
    {
      OFFSET 6.085098 -30.466791 0.234168
      CHANNELS 3 Zrotation Xrotation Yrotation
      JOINT AnkleRight
      {
        OFFSET 4.648354 -32.448459 4.689233
        CHANNELS 3 Zrotation Xrotation Yrotation
        JOINT FootRight
        {
          OFFSET -3.982137 -2.639389 -9.739403
          CHANNELS 3 Zrotation Xrotation Yrotation
          End Site
          {
            OFFSET 0 0 0
          }
        }
      }
    }
  }
}
MOTION
Frames: 5
Frame Time: 0.033333
38.154604 70.925412 371.141284 0.746917 -1.838236 12.265741 -0.365589 0.485520 -12.252963 -0.209517 -0.055773 -0.009019 4.057423 1.430893 -0.485915 0.000000 0.000000 0.000000 -10.445411 -65.176602 -4.403005 34.345654 32.890170 -42.148758 -43.145247 -2.313537 87.240152 -21.278008 -3.811885 -57.961055 0.000000 0.000000 0.000000 0.000000 0.000000 0.000000 64.147636 -25.559647 0.677006 -68.373460 -1.188102 32.307721 67.064861 72.204521 -108.317194 82.455189 24.897801 55.057995 0.000000 0.000000 0.000000 0.000000 0.000000 0.000000 -1.645582 4.465855 -12.303820 3.039402 -3.592690 0.284627 1.358351 -5.229261 -1.559822 0.000000 0.000000 0.000000 0.237154 7.780473 -11.138030 0.560672 -5.827040 -1.130404 3.456595 -8.406656 0.294970 0.000000 0.000000 0.000000
38.009790 70.871507 371.206368 0.640094 -1.894813 13.500574 -0.235755 0.437762 -13.491364 -0.176807 -0.078719 -0.006610 4.463948 1.352864 -0.567519 0.000000 0.000000 0.000000 -9.892546 -65.519082 -4.075062 34.105497 33.375167 -42.205074 -43.143508 -2.312248 87.239115 -21.227915 -3.881139 -58.340287 0.000000 0.000000 0.000000 0.000000 0.000000 0.000000 64.100931 -23.583653 -0.639184 -67.576044 -4.183454 31.634277 65.187597 72.625841 -107.067624 82.640526 23.998607 52.005278 0.000000 0.000000 0.000000 0.000000 0.000000 0.000000 -1.196238 4.630744 -13.518025 2.854494 -3.713810 0.255957 0.559961 -2.530891 -2.611850 0.000000 0.000000 0.000000 0.697419 8.000670 -12.357231 0.428979 -6.056940 -1.183472 2.226342 -3.942000 -2.595138 0.000000 0.000000 0.000000
37.875564 70.815899 371.277708 0.580722 -1.896354 14.643235 -0.132165 0.374308 -14.635698 -0.135504 -0.063699 -0.001830 5.087757 1.040881 -0.688962 0.000000 0.000000 0.000000 -9.737546 -65.892025 -3.970485 34.055402 33.768926 -42.348914 -43.142110 -2.311023 87.238342 -21.166583 -3.896890 -58.397705 0.000000 0.000000 0.000000 0.000000 0.000000 0.000000 63.992644 -21.334971 -2.052977 -67.104864 -7.478532 30.817470 62.497395 73.431048 -105.752449 84.130931 25.648361 49.506014 0.000000 0.000000 0.000000 0.000000 0.000000 0.000000 -0.841531 4.694455 -14.644854 2.719626 -3.657067 0.252645 -0.267662 0.326938 -3.839384 0.000000 0.000000 0.000000 1.083144 8.187640 -13.478552 0.312306 -6.306002 -1.239911 2.289518 -4.643695 -1.641747 0.000000 0.000000 0.000000
37.778376 70.746794 371.327929 0.559867 -1.883733 15.690030 -0.047789 0.339923 -15.682421 -0.092592 -0.043584 0.003847 5.973655 0.625155 -0.839488 0.000000 0.000000 0.000000 -9.849999 -66.183104 -4.012187 34.113475 34.013784 -42.499377 -43.141097 -2.310330 87.237760 -21.182901 -3.872674 -58.265339 0.000000 0.000000 0.000000 0.000000 0.000000 0.000000 63.816287 -18.868192 -3.540723 -66.695634 -10.833101 29.764047 54.868291 74.939592 -100.855592 85.298851 26.437112 44.335712 0.000000 0.000000 0.000000 0.000000 0.000000 0.000000 -0.578655 4.600992 -15.682520 2.498652 -3.289582 0.249869 0.280835 -2.460087 -2.176000 0.000000 0.000000 0.000000 1.339366 8.315797 -14.508758 0.264413 -6.490100 -1.279424 3.337812 -8.685497 1.572398 0.000000 0.000000 0.000000
37.729179 70.657903 371.403204 0.623543 -1.842855 16.485287 0.017425 0.371751 -16.473748 -0.040061 0.020516 0.013103 6.894999 -0.087738 -0.992472 0.000000 0.000000 0.000000 -10.106225 -66.464927 -4.123017 34.148664 34.132052 -42.576700 -43.140284 -2.310008 87.237235 -21.203169 -3.865898 -58.237279 0.000000 0.000000 0.000000 0.000000 0.000000 0.000000 62.801016 -16.073951 -5.040580 -66.005814 -14.005536 28.217152 39.499037 75.112374 -86.613275 87.444058 27.314029 38.069726 0.000000 0.000000 0.000000 0.000000 0.000000 0.000000 -0.460933 4.416229 -16.469460 2.312117 -2.848437 0.256233 0.289056 -2.771637 -2.181546 0.000000 0.000000 0.000000 1.390967 8.467678 -15.275590 0.303041 -6.678044 -1.313960 3.134060 -8.063923 1.201990 0.000000 0.000000 0.000000
